<!-- stroke를 그라데이션 적용하기 위해 current로 변경 -->
<svg 
    width="26" 
    height="26" 
    viewBox="0 0 26 26" 
    fill="none" 
    xmlns="http://www.w3.org/2000/svg">
    <g id="streamline:discount-percent-coupon" clip-path="url(#clip0_306_2415)">
        <g id="Group">
            <path id="Vector" d="M8.12829 17.0862L17.1206 8.09383M0.898438 19.7839C0.898437 20.2602 1.08742 20.7171 1.42392 21.0543C1.76043 21.3915 2.21695 21.5814 2.69331 21.5823H22.4837C22.96 21.5814 23.4166 21.3915 23.7531 21.0543C24.0896 20.7171 24.2785 20.2602 24.2785 19.7839V16.1258C23.502 15.9152 22.8164 15.4549 22.3276 14.8158C21.8387 14.1768 21.5739 13.3946 21.5739 12.59C21.5739 11.7854 21.8387 11.0032 22.3276 10.3642C22.8164 9.72513 23.502 9.26478 24.2785 9.05421V5.39613C24.2785 4.91976 24.0896 4.46286 23.7531 4.12569C23.4166 3.78851 22.96 3.59861 22.4837 3.59766H2.69331C2.21695 3.59861 1.76043 3.78851 1.42392 4.12569C1.08742 4.46286 0.898437 4.91976 0.898438 5.39613V9.04702C1.68117 9.25289 2.37369 9.71216 2.86787 10.3531C3.36205 10.9941 3.63006 11.7807 3.63006 12.59C3.63006 13.3994 3.36205 14.1859 2.86787 14.8269C2.37369 15.4678 1.68117 15.9271 0.898438 16.133V19.7839Z" 
            stroke="current" 
            stroke-width="2.5" 
            stroke-linecap="round" 
            stroke-linejoin="round"/>
            <path id="Vector_2" d="M9.02814 9.89222C9.26663 9.89222 9.49536 9.79748 9.664 9.62884C9.83264 9.4602 9.92738 9.23148 9.92738 8.99298C9.92738 8.75449 9.83264 8.52577 9.664 8.35713C9.49536 8.18849 9.26663 8.09375 9.02814 8.09375C8.78965 8.09375 8.56093 8.18849 8.39229 8.35713C8.22365 8.52577 8.12891 8.75449 8.12891 8.99298C8.12891 9.23148 8.22365 9.4602 8.39229 9.62884C8.56093 9.79748 8.78965 9.89222 9.02814 9.89222ZM16.222 17.0861C16.4605 17.0861 16.6892 16.9914 16.8579 16.8227C17.0265 16.6541 17.1213 16.4254 17.1213 16.1869C17.1213 15.9484 17.0265 15.7196 16.8579 15.551C16.6892 15.3824 16.4605 15.2876 16.222 15.2876C15.9835 15.2876 15.7548 15.3824 15.5862 15.551C15.4175 15.7196 15.3228 15.9484 15.3228 16.1869C15.3228 16.4254 15.4175 16.6541 15.5862 16.8227C15.7548 16.9914 15.9835 17.0861 16.222 17.0861Z" 
            stroke="current" 
            stroke-width="2.84906" 
            stroke-linecap="round" 
            stroke-linejoin="round"/>
        </g>
    </g>
    <defs>
        <linearGradient id="paint0_linear_306_2415" x1="12.5885" y1="3.59766" x2="12.5885" y2="21.5823" gradientUnits="userSpaceOnUse">
            <stop offset="0.536458" stop-color="#FF0069"/>
            <stop offset="0.927083" stop-color="#FF7A01"/>
        </linearGradient>
        <linearGradient id="paint1_linear_306_2415" x1="12.6251" y1="8.09375" x2="12.6251" y2="17.      0861" gradientUnits="userSpaceOnUse">
            <stop offset="0.536458" stop-color="#FF0069"/>
            <stop offset="0.927083" stop-color="#FF7A01"/>
        </linearGradient>
        <clipPath id="clip0_306_2415">
            <rect width="25.1786" height="25.1786" fill="white"/>
        </clipPath>
    </defs>
</svg>
