<!-- stroke를 그라데이션 적용하기 위해 current로 변경 -->
<svg 
    width="26" 
    height="26" 
    viewBox="0 0 25 22" 
    fill="none" 
    xmlns="http://www.w3.org/2000/svg">
    <path id="Vector" d="M12.4664 4.80242C12.8607 4.80242 13.2318 4.61642 13.4678 4.30061C13.4679 4.30043 13.468 4.30025 13.4682 4.30007L13.4688 4.29933L13.484 4.27948C13.499 4.26016 13.5236 4.22903 13.5571 4.18777C13.6242 4.10514 13.7268 3.98258 13.861 3.83342C14.1308 3.53349 14.5206 3.13462 14.9984 2.73861C15.9895 1.91717 17.1876 1.25 18.3871 1.25C20.9781 1.25 23.0578 3.32633 23.0578 5.8615C23.0578 6.98708 22.8388 8.9682 21.4319 11.409C20.0255 13.8489 17.393 16.8153 12.4664 19.8528C7.53981 16.8153 4.90735 13.8489 3.5009 11.409C2.09396 8.9682 1.875 6.98708 1.875 5.8615C1.875 3.32633 3.95467 1.25 6.5457 1.25C7.74522 1.25 8.94334 1.91717 9.93441 2.73861C10.4122 3.13462 10.802 3.53349 11.0718 3.83342C11.206 3.98258 11.3086 4.10514 11.3758 4.18777C11.4093 4.22903 11.4338 4.26016 11.4488 4.27948L11.4641 4.29933L11.465 4.30061C11.4654 4.30109 11.4658 4.30158 11.4661 4.30206C11.7022 4.61699 12.0728 4.80242 12.4664 4.80242Z" 
    stroke="current" 
    stroke-width="2.5" 
    stroke-linecap="round" 
    stroke-linejoin="round"/>
    <defs>
        <linearGradient id="paint0_linear_306_2405" x1="12.4664" y1="0" x2="12.4664" y2="21.    1174"   gradientUnits="userSpaceOnUse">
            <stop offset="0.536458" stop-color="#FF0069"/>
            <stop offset="0.927083" stop-color="#FF7A01"/>
        </linearGradient>
    </defs>
</svg>
