<!-- stroke를 그라데이션 적용하기 위해 current로 변경 -->
<svg 
    width="26" 
    height="26" 
    viewBox="0 0 26 26" 
    fill="none" 
    xmlns="http://www.w3.org/2000/svg">
    <g id="akar-icons:person">
        <g id="Group">
            <path id="Vector" d="M12.5893 12.5898C15.4863 12.5898 17.8348 10.2413 17.8348 7.34429C17.8348 4.44726 15.4863 2.09875 12.5893 2.09875C9.69226 2.09875 7.34375 4.44726 7.34375 7.34429C7.34375 10.2413 9.69226 12.5898 12.5893 12.5898Z" 
            stroke="current" 
            stroke-width="2.5"/>
            <path id="Vector_2" d="M17.8347 14.6875H18.204C18.9709 14.6877 19.7114 14.968 20.2864 15.4757C20.8613 15.9834 21.231 16.6835 21.3261 17.4446L21.7363 20.722C21.7732 21.0172 21.7469 21.3169 21.6591 21.6012C21.5713 21.8855 21.424 22.1479 21.2271 22.3709C21.0302 22.594 20.788 22.7726 20.5168 22.8949C20.2455 23.0172 19.9514 23.0804 19.6538 23.0804H5.52445C5.22691 23.0804 4.93275 23.0172 4.66151 22.8949C4.39026 22.7726 4.14813 22.594 3.95119 22.3709C3.75424 22.1479 3.60699 21.8855 3.51919 21.6012C3.4314 21.3169 3.40508 21.0172 3.44197 20.722L3.85113 17.4446C3.94628 16.6831 4.31632 15.9827 4.89166 15.475C5.46701 14.9673 6.20803 14.6872 6.97537 14.6875H7.34361" 
            stroke="current" 
            stroke-width="2.5" 
            stroke-linecap="round" 
            stroke-linejoin="round"/>
        </g>
    </g>
    <defs>
        <linearGradient id="paint0_linear_306_2395" x1="12.5893" y1="2.09875" x2="12.5893" y2="12.  5898" gradientUnits="userSpaceOnUse">
            <stop offset="0.536458" stop-color="#FF0069"/>
            <stop offset="0.927083" stop-color="#FF7A01"/>
        </linearGradient>
        <linearGradient id="paint1_linear_306_2395" x1="12.5891" y1="14.6875" x2="12.5891" y2="23.  0804" gradientUnits="userSpaceOnUse">
            <stop offset="0.536458" stop-color="#FF0069"/>
            <stop offset="0.927083" stop-color="#FF7A01"/>
        </linearGradient>
    </defs>
</svg>
